<?xml version="1.0" standalone="no"?>
<!DOCTYPE svg PUBLIC "-//W3C//DTD SVG 20010904//EN"
 "http://www.w3.org/TR/2001/REC-SVG-20010904/DTD/svg10.dtd">
<svg version="1.0" xmlns="http://www.w3.org/2000/svg"
 width="600.000000pt" height="600.000000pt" viewBox="0 0 600.000000 600.000000"
 preserveAspectRatio="xMidYMid meet">
<metadata>
Created by potrace 1.11, written by Peter Selinger 2001-2013
</metadata>
<g transform="translate(0.000000,600.000000) scale(0.100000,-0.100000)"
fill="#000000" stroke="none">
<path d="M3337 4614 c-1 -1 -31 -4 -67 -7 -332 -29 -542 -259 -578 -635 -23
-241 14 -414 127 -592 55 -88 82 -117 352 -390 266 -268 303 -312 344 -410 49
-117 60 -349 20 -418 -30 -50 -101 -70 -165 -45 -81 32 -93 78 -94 363 l-2
224 -284 1 c-157 0 -290 -1 -296 -3 -11 -3 -11 -400 0 -500 7 -65 38 -206 47
-216 5 -6 9 -16 9 -24 0 -22 59 -134 94 -180 121 -154 337 -233 628 -226 68 1
137 5 153 8 240 49 374 166 461 401 65 177 88 486 53 697 -20 115 -62 232
-116 322 -69 114 -101 148 -539 576 -172 168 -213 230 -221 335 -10 114 44
173 149 163 91 -9 114 -53 113 -225 0 -60 4 -104 10 -106 6 -2 143 -3 305 -2
l295 1 1 67 c0 62 -9 173 -19 222 -3 11 -8 38 -11 60 -12 66 -43 151 -81 224
-106 201 -309 305 -613 314 -40 1 -74 2 -75 1z"/>
<path d="M4933 4604 c-279 -40 -451 -187 -536 -459 -22 -72 -33 -128 -52 -275
-8 -61 -7 -1608 1 -1673 9 -80 42 -204 68 -256 86 -177 239 -310 412 -356 100
-27 114 -29 264 -28 162 1 287 26 391 78 199 100 311 285 334 551 9 104 9 673
0 682 -10 10 -586 9 -592 -1 -3 -5 -6 -149 -7 -321 -2 -274 -5 -316 -20 -354
-33 -77 -105 -105 -177 -70 -39 18 -65 60 -75 124 -9 53 -8 1628 1 1684 14 88
40 118 112 127 73 8 117 -15 140 -75 15 -40 17 -83 18 -319 l0 -273 300 0 301
0 -2 323 c-1 360 -9 415 -76 553 -49 101 -158 207 -268 261 -159 77 -346 104
-537 77z"/>
<path d="M165 4501 c4 -47 8 -93 10 -102 2 -10 6 -49 10 -86 3 -37 8 -84 11
-103 2 -19 6 -62 9 -95 3 -33 7 -71 10 -85 2 -14 7 -54 10 -90 6 -66 12 -117
20 -180 4 -32 9 -89 20 -200 6 -67 17 -163 20 -180 2 -8 6 -53 10 -100 4 -47
8 -87 10 -90 2 -3 6 -43 10 -90 4 -47 9 -92 10 -100 2 -9 6 -47 10 -85 3 -37
8 -83 11 -101 2 -19 6 -60 9 -91 2 -32 7 -74 9 -93 3 -19 8 -62 11 -94 3 -33
8 -73 10 -90 3 -17 7 -53 9 -81 7 -77 15 -162 26 -255 10 -84 13 -115 25 -240
4 -36 8 -72 10 -80 2 -8 7 -51 11 -95 3 -44 8 -87 9 -95 2 -13 52 -15 368 -18
202 -1 367 1 368 5 0 5 2 16 4 26 2 9 6 50 10 90 3 39 8 83 10 97 2 14 7 57
10 95 3 39 7 86 10 105 2 19 7 67 10 105 3 39 8 86 10 105 2 19 6 64 10 100 8
90 15 159 20 200 2 19 7 69 10 110 4 41 8 86 10 100 2 14 7 59 11 100 4 41 8
86 9 100 2 14 3 38 4 54 1 16 3 27 5 25 7 -7 14 -55 21 -154 4 -49 8 -92 10
-95 2 -3 6 -39 9 -80 4 -41 9 -89 11 -105 2 -17 6 -61 10 -100 3 -38 8 -86 10
-105 5 -42 24 -228 31 -290 2 -25 6 -63 9 -85 2 -22 7 -71 11 -110 3 -38 7
-77 9 -85 2 -13 18 -166 19 -195 1 -6 131 -11 364 -13 l362 -2 1 22 c0 13 2
31 4 40 2 9 6 54 10 100 4 46 8 85 10 88 2 3 6 41 9 85 4 44 9 87 11 95 2 8 7
47 10 85 7 84 15 151 20 185 2 14 7 59 10 100 3 41 8 86 10 100 3 14 7 50 10
80 10 111 16 165 20 180 2 8 7 51 11 95 3 44 8 88 10 98 2 10 6 53 10 95 3 42
8 85 10 95 2 10 6 48 9 85 3 37 8 78 10 92 4 24 8 63 20 175 2 28 7 73 10 100
11 94 14 120 19 170 3 28 13 111 21 185 8 74 17 158 20 185 5 54 9 95 25 225
8 67 20 189 22 220 0 3 0 10 -1 16 -1 7 -94 10 -296 10 l-295 0 -1 -25 c-1
-14 -2 -37 -4 -51 -1 -14 -5 -61 -9 -105 -4 -44 -8 -100 -11 -125 -2 -25 -6
-81 -10 -125 -4 -44 -8 -96 -10 -115 -2 -19 -6 -73 -10 -120 -3 -47 -8 -103
-10 -125 -3 -22 -7 -71 -10 -110 -3 -38 -8 -90 -10 -115 -2 -25 -6 -81 -10
-125 -3 -44 -8 -96 -10 -115 -2 -19 -7 -66 -10 -105 -3 -38 -8 -99 -11 -135
-13 -150 -26 -310 -28 -347 -3 -35 -12 -35 -12 0 -1 30 -9 137 -19 252 -3 28
-7 79 -10 115 -3 36 -7 85 -10 110 -2 25 -7 77 -10 115 -8 98 -14 181 -20 248
-3 31 -7 83 -10 115 -6 67 -12 149 -20 247 -3 39 -8 89 -11 112 -2 23 -7 75
-9 115 -3 40 -7 87 -9 103 -2 17 -7 75 -11 130 -4 55 -9 109 -10 120 -1 11 -3
29 -4 40 -1 21 -6 21 -281 21 -224 0 -280 -2 -281 -13 -1 -7 -2 -21 -3 -30 -1
-10 -6 -63 -10 -118 -5 -55 -9 -107 -11 -115 -2 -8 -6 -55 -10 -105 -3 -49 -9
-110 -11 -135 -3 -25 -7 -67 -9 -95 -7 -92 -15 -190 -20 -230 -5 -48 -13 -139
-20 -220 -2 -33 -7 -89 -10 -125 -4 -36 -8 -85 -10 -110 -12 -145 -17 -198
-20 -220 -2 -14 -7 -63 -11 -110 -4 -47 -8 -96 -9 -110 -2 -14 -3 -47 -4 -74
-1 -27 -4 -46 -7 -43 -8 7 -11 32 -19 147 -3 47 -8 99 -10 115 -2 17 -7 66
-10 110 -3 44 -8 96 -10 115 -4 35 -11 108 -20 210 -13 155 -16 198 -20 230
-2 19 -7 76 -10 125 -4 50 -8 101 -10 115 -2 14 -7 59 -10 100 -3 41 -7 95
-10 120 -8 79 -17 184 -20 230 -13 174 -18 226 -22 230 -3 3 -135 5 -295 6
l-290 0 7 -85z"/>
</g>
</svg>
